<svg width="56" height="56" viewBox="0 0 56 56" fill="none" xmlns="http://www.w3.org/2000/svg">
<rect width="56" height="56" rx="28" fill="white"/>
<path d="M16.71 19.6145L18.9768 17.5284C19.3459 17.1886 19.8294 17 20.3311 17H37C38.1046 17 39 17.8954 39 19V26.1768C39 26.7709 38.7359 27.3343 38.2792 27.7142L36.5963 29.1145L35.0212 30.5012C34.656 30.8227 34.1862 31 33.6996 31H16C14.8954 31 14 30.1046 14 29V22.9905C14 22.4321 14.2334 21.8991 14.6439 21.5205L16.71 19.6145Z" fill="#F90042"/>
<path d="M17.0352 22.3615L19.6252 19.6251C20.003 19.2261 20.5283 19 21.0778 19H40C41.1046 19 42 19.8954 42 21V31.1489C42 31.6953 41.7765 32.2178 41.3814 32.5952L39.3079 34.5758L37.4961 36.4067C37.1205 36.7864 36.6086 37 36.0745 37H16C14.8954 37 14 36.1046 14 35V26.3708C14 25.8602 14.1953 25.369 14.5458 24.9977L17.0352 22.3615Z" fill="#1E1B2E"/>
<rect x="23" y="23" width="9" height="9" fill="white"/>
<path d="M28.625 26.9375H26.5625V24.65C26.5625 24.5773 26.5625 24.534 26.5634 24.5013C26.564 24.4806 26.5648 24.4716 26.565 24.4695C26.5781 24.3902 26.6402 24.3281 26.7195 24.315C26.7216 24.3148 26.7306 24.314 26.7513 24.3134C26.784 24.3125 26.8273 24.3125 26.9 24.3125H28.625C29.3499 24.3125 29.9375 24.9001 29.9375 25.625C29.9375 26.3499 29.3499 26.9375 28.625 26.9375Z" fill="#1E1B2E"/>
<path fill-rule="evenodd" clip-rule="evenodd" d="M35 27.5C35 31.6421 31.6421 35 27.5 35C23.3579 35 20 31.6421 20 27.5C20 23.3579 23.3579 20 27.5 20C31.6421 20 35 23.3579 35 27.5ZM24.6875 29C24.6875 28.6893 24.9393 28.4375 25.25 28.4375H25.4375V28.0625H25.25C24.9393 28.0625 24.6875 27.8107 24.6875 27.5C24.6875 27.1893 24.9393 26.9375 25.25 26.9375H25.4375L25.4375 24.6211C25.4373 24.512 25.4372 24.3985 25.4537 24.2947C25.5426 23.7331 25.9831 23.2926 26.5447 23.2037C26.6485 23.1872 26.762 23.1873 26.8711 23.1875L28.625 23.1875C29.9712 23.1875 31.0625 24.2788 31.0625 25.625C31.0625 26.9712 29.9712 28.0625 28.625 28.0625H26.5625V28.4375H27.5C27.8107 28.4375 28.0625 28.6893 28.0625 29C28.0625 29.3107 27.8107 29.5625 27.5 29.5625H26.5625V31.25C26.5625 31.5607 26.3107 31.8125 26 31.8125C25.6893 31.8125 25.4375 31.5607 25.4375 31.25V29.5625H25.25C24.9393 29.5625 24.6875 29.3107 24.6875 29Z" fill="#1E1B2E"/>
</svg>
