<svg width="14" height="14" viewBox="0 0 14 14" fill="none" xmlns="http://www.w3.org/2000/svg">
<path d="M4.025 0.518519C4.025 0.232149 3.78995 0 3.5 0C3.21005 0 2.975 0.232149 2.975 0.518519V1.61035C1.96747 1.69003 1.30604 1.88559 0.820101 2.36553C0.334162 2.84547 0.136159 3.49873 0.0554801 4.49383H13.9445C13.8638 3.49873 13.6658 2.84547 13.1799 2.36553C12.694 1.88559 12.0325 1.69003 11.025 1.61035V0.518519C11.025 0.232149 10.7899 0 10.5 0C10.2101 0 9.975 0.232149 9.975 0.518519V1.56448C9.50931 1.55556 8.98732 1.55556 8.4 1.55556H5.6C5.01268 1.55556 4.49069 1.55556 4.025 1.56448V0.518519Z" fill="#100E19"/>
<path fill-rule="evenodd" clip-rule="evenodd" d="M14 7.08642V8.46914C14 11.0764 14 12.38 13.1799 13.19C12.3598 14 11.0399 14 8.4 14H5.6C2.96013 14 1.6402 14 0.820101 13.19C0 12.38 0 11.0764 0 8.46914V7.08642C0 6.50635 0 5.9908 0.00903141 5.53086H13.991C14 5.9908 14 6.50635 14 7.08642ZM10.15 11.2346C10.7299 11.2346 11.2 10.7703 11.2 10.1975C11.2 9.62479 10.7299 9.16049 10.15 9.16049C9.5701 9.16049 9.1 9.62479 9.1 10.1975C9.1 10.7703 9.5701 11.2346 10.15 11.2346Z" fill="#100E19"/>
</svg>
