<svg width="359" height="106" viewBox="0 0 359 106" fill="none" xmlns="http://www.w3.org/2000/svg">
<path d="M5 1.52904C-23.9875 2.32904 -21.1525 26.0293 -23.5092 17.5293L-73 188.529H406C397.162 179.196 375.952 156.929 361.812 142.529C344.137 124.529 321.827 121.529 301.5 100.029C281.183 78.5392 279.554 80.5275 273.009 88.5182L273 88.5293C261.582 102.468 234.2 104.232 227 84.0293C223.611 74.5205 211.365 68.2432 204.5 65.5293C183 57.0293 154.327 58.0292 134 68.5292C113.673 79.0292 84.9889 72.5293 73.5 49.0293C62.0111 25.5293 41.2343 0.529045 5 1.52904Z" fill="url(#paint0_linear_276_1702)" stroke="#F9C200" stroke-width="3"/>
<defs>
<linearGradient id="paint0_linear_276_1702" x1="166.5" y1="1.5" x2="166.5" y2="188.529" gradientUnits="userSpaceOnUse">
<stop stop-color="#F9C200" stop-opacity="0.53"/>
<stop offset="1" stop-color="white" stop-opacity="0"/>
</linearGradient>
</defs>
</svg>
