<svg width="195" height="88" viewBox="0 0 195 88" fill="none" xmlns="http://www.w3.org/2000/svg">
<path d="M29.4366 69.666C21.4743 59.2848 7.16126 85.4527 1 94.1037V106H242L200.056 37.7809C182.52 25.546 189.961 22.9293 169.487 7.50587C143.894 -11.7735 146.737 16.4041 134.652 32.3467C122.566 48.2893 123.988 49.4015 111.903 34.942C99.8171 20.4825 96.2625 44.9526 88.4425 64.2318C82.1864 79.6551 71.8545 74.7007 67.826 61.8479C63.7974 58.3875 56.5935 56.3188 51.4749 69.666C45.0767 86.3499 39.3894 82.6424 29.4366 69.666Z" fill="url(#paint0_linear_276_1696)" stroke="#384FCF" stroke-width="2"/>
<defs>
<linearGradient id="paint0_linear_276_1696" x1="129.5" y1="118" x2="123.47" y2="17.2155" gradientUnits="userSpaceOnUse">
<stop offset="0.240385" stop-color="white"/>
<stop offset="1" stop-color="#384FCF" stop-opacity="0.51"/>
</linearGradient>
</defs>
</svg>
