<svg width="38" height="38" viewBox="0 0 38 38" fill="none" xmlns="http://www.w3.org/2000/svg">
<rect width="38" height="38" rx="5" fill="#D9D9D9"/>
<path d="M18.5201 23.929L18.5201 23.9289L24.4368 18.0123C23.6315 17.6771 22.6777 17.1266 21.7757 16.2245C20.8736 15.3224 20.323 14.3685 19.9879 13.5631L14.0711 19.4799L14.071 19.48C13.6093 19.9417 13.3785 20.1725 13.1799 20.4271C12.9457 20.7273 12.7449 21.0522 12.5811 21.396C12.4422 21.6874 12.3389 21.9972 12.1324 22.6167L11.0436 25.8833C10.9419 26.1882 11.0213 26.5243 11.2485 26.7515C11.4757 26.9787 11.8118 27.0581 12.1167 26.9564L15.3833 25.8676C16.0028 25.6611 16.3126 25.5578 16.604 25.4189C16.9478 25.2551 17.2727 25.0543 17.5729 24.8201C17.8275 24.6215 18.0584 24.3907 18.5201 23.929Z" fill="#8C8B8E"/>
<path d="M26.0786 16.3704C27.3071 15.1419 27.3071 13.15 26.0786 11.9214C24.85 10.6929 22.8581 10.6929 21.6296 11.9214L20.9199 12.6311C20.9296 12.6604 20.9397 12.6901 20.9502 12.7203C21.2103 13.47 21.701 14.4528 22.6243 15.376C23.5475 16.2992 24.5303 16.79 25.28 17.0501C25.31 17.0605 25.3396 17.0705 25.3688 17.0802L26.0786 16.3704Z" fill="#8C8B8E"/>
</svg>
