<svg width="44" height="44" viewBox="0 0 44 44" fill="none" xmlns="http://www.w3.org/2000/svg">
<rect x="0.527778" y="0.527778" width="42.9444" height="42.9444" rx="7.47222" stroke="#F90042" stroke-width="1.05556"/>
<rect x="2" y="2" width="40" height="40" rx="6" fill="#F90042"/>
<path d="M23 23L26 20M26 20L23 17M26 20H18M22 26.5C26 26.5 29.5 26.1667 30 25.8333C30.5 25.5 31 22.6667 31 20C31 17.3333 30.5 14.5 30 14.1667C29.5 13.8333 26 13.5 22 13.5C18 13.5 14.5 13.8333 14 14.1667C13.5 14.5 13 17.3333 13 20C13 22.6667 13.5 25.5 14 25.8333C14.5 26.1667 18 26.5 22 26.5ZM22 26.5V30.5M22 30.5H26M22 30.5H18" stroke="white" stroke-width="1.5" stroke-linecap="round" stroke-linejoin="round"/>
</svg>
