<svg width="42" height="36" viewBox="0 0 42 36" fill="none" xmlns="http://www.w3.org/2000/svg">
<path d="M7.67004 26.49V3.76H5.92004L5.79004 2.38L8.43004 0.25H11.58V26.49H7.68004H7.67004Z" fill="#F90042"/>
<path d="M16.2301 26.49V3.76H14.4801L14.3501 2.38L16.9901 0.25H20.1401V26.49H16.2401H16.2301Z" fill="#F90042"/>
<path d="M23.3202 9.78C23.2902 8.95 23.2702 8.2 23.2502 7.53C23.2402 6.86 23.2402 6.21 23.2502 5.58C23.3302 3.74 23.7702 2.38 24.5802 1.5C25.3902 0.62 26.6602 0.12 28.4002 0V3.18C27.5402 3.4 27.1002 3.95 27.0902 4.82C27.0602 5.65 27.0402 6.46 27.0302 7.26C27.0202 8.06 27.0402 8.89 27.0902 9.78H23.3202ZM23.3202 26.49C23.3102 25.98 23.3002 25.55 23.2902 25.22C23.2802 24.89 23.2702 24.56 23.2702 24.24C23.2702 23.92 23.2702 23.54 23.2702 23.09C23.2702 22.64 23.2802 22.05 23.2902 21.3C23.3302 19.38 23.7502 17.8 24.5402 16.58C25.3302 15.36 26.4502 14.34 27.9002 13.55L29.9702 12.39C30.7502 11.95 31.2402 11.43 31.4502 10.83C31.6602 10.23 31.7802 9.64 31.8302 9.08C31.8602 8.43 31.8802 7.75 31.9002 7.02C31.9202 6.29 31.9002 5.6 31.8502 4.93C31.8002 3.99 31.3002 3.4 30.3702 3.18V0.0100002C32.2102 0.12 33.5302 0.610001 34.3302 1.49C35.1302 2.37 35.5702 3.73 35.6502 5.58C35.6702 6.1 35.6802 6.71 35.6802 7.39C35.6802 8.07 35.6702 8.64 35.6502 9.1C35.5802 10.78 35.1702 12.13 34.4102 13.13C33.6502 14.14 32.6402 14.99 31.3802 15.71L29.0702 17.01C28.3602 17.41 27.8602 18.03 27.5902 18.87C27.3102 19.71 27.1702 20.52 27.1702 21.31V26.49H23.3302H23.3202ZM29.1102 26.49V23.16H35.4202V26.49H29.1102Z" fill="#F90042"/>
<path d="M0 35.9297V32.5497H1.17L1.67 30.7397L2.21 29.2097H3.26L0.98 34.8397V35.9397H0V35.9297ZM0 32.1297V29.1997H1.02V30.7297L0.9 32.1297H0ZM2.35 35.9297L1.78 33.9697L2.36 32.6197L3.34 35.9197H2.36L2.35 35.9297Z" fill="#F90042"/>
<path d="M5.05996 35.9899C4.58996 35.9599 4.24996 35.8299 4.04996 35.6099C3.83996 35.3899 3.72996 35.0299 3.72996 34.5499C3.72996 34.0599 3.71996 33.5999 3.70996 33.1799C3.70996 32.7599 3.70996 32.3399 3.70996 31.9199C3.70996 31.4999 3.70996 31.0499 3.72996 30.5699C3.72996 30.0899 3.84996 29.7399 4.04996 29.5199C4.24996 29.2999 4.59996 29.1699 5.05996 29.1399V29.9599C4.81996 30.0099 4.69996 30.1999 4.69996 30.5299C4.67996 31.0199 4.66996 31.4799 4.65996 31.9099C4.65996 32.3399 4.65996 32.7699 4.65996 33.2099C4.65996 33.6399 4.67996 34.1099 4.69996 34.6099C4.69996 34.7799 4.72996 34.9099 4.77996 34.9999C4.82996 35.0899 4.92996 35.1499 5.05996 35.1799V35.9999V35.9899ZM5.55996 35.9899V35.1699C5.68996 35.1399 5.77996 35.0799 5.82996 34.9899C5.87996 34.8999 5.90996 34.7699 5.90996 34.5999C5.92996 34.1099 5.93996 33.6399 5.93996 33.2099C5.93996 32.7799 5.93996 32.3499 5.93996 31.9099C5.93996 31.4799 5.91996 31.0099 5.90996 30.5199C5.90996 30.3499 5.87996 30.2199 5.82996 30.1299C5.77996 30.0399 5.68996 29.9799 5.55996 29.9499V29.1299C6.00996 29.1599 6.33996 29.2899 6.53996 29.5199C6.73996 29.7499 6.84996 30.0899 6.86996 30.5599C6.88996 31.0499 6.89996 31.4999 6.89996 31.9199C6.89996 32.3399 6.89996 32.7599 6.89996 33.1799C6.89996 33.5999 6.88996 34.0599 6.86996 34.5499C6.85996 35.0299 6.74996 35.3799 6.53996 35.5999C6.33996 35.8199 6.00996 35.9499 5.55996 35.9899Z" fill="#F90042"/>
<path d="M9.73 35.92L9.35 33.96L8.97 30.06H7.77V29.21H9.66L10.08 31.89L10.28 35.07H10.59L10.78 31.9L11.21 29.21H13.1V30.06H11.9L11.52 33.94L11.11 35.92H9.72H9.73ZM7.76 35.93V30.41H8.63L8.74 33.92V35.93H7.75H7.76ZM12.11 35.93V33.92L12.23 30.41H13.1V35.93H12.11Z" fill="#F90042"/>
<path d="M14.04 35.9297V35.0697H15.15L15.66 31.3797L16.08 29.1997H17.82V30.0497H16.7L16.28 33.6197L15.84 35.9297H14.05H14.04ZM16.86 35.9297L16.93 33.3597L17.03 30.4297H17.82V35.9297H16.86ZM14.04 34.6997V29.1997H15.01L14.94 31.8397L14.84 34.6997H14.05H14.04Z" fill="#F90042"/>
<path d="M20.0299 35.9996C19.5699 35.9696 19.2299 35.8396 19.0199 35.6196C18.8099 35.3996 18.6999 35.0497 18.6899 34.5797C18.6899 34.0997 18.6799 33.6396 18.6699 33.2096C18.6699 32.7796 18.6699 32.3497 18.6699 31.9197C18.6699 31.4897 18.6699 31.0296 18.6899 30.5396C18.6899 30.0796 18.8099 29.7396 19.0199 29.5196C19.2299 29.2996 19.5699 29.1696 20.0299 29.1396V29.9596C19.8999 29.9896 19.8099 30.0397 19.7499 30.1297C19.6899 30.2197 19.6599 30.3397 19.6599 30.5097C19.6499 31.0097 19.6399 31.4797 19.6399 31.9197C19.6399 32.3597 19.6399 32.7896 19.6399 33.2296C19.6399 33.6696 19.6499 34.1297 19.6599 34.6297C19.6599 34.9497 19.7899 35.1296 20.0399 35.1796V35.9996H20.0299ZM20.8799 31.6396C20.8799 31.4496 20.8899 31.2597 20.8899 31.0797C20.8899 30.8997 20.8899 30.7096 20.8899 30.5196C20.8899 30.2196 20.7699 30.0396 20.5399 29.9796V29.1596C20.9799 29.1996 21.2999 29.3297 21.5199 29.5597C21.7299 29.7897 21.8399 30.1296 21.8599 30.5696C21.8599 30.7496 21.8699 30.9296 21.8599 31.1096C21.8599 31.2896 21.8599 31.4697 21.8399 31.6497H20.8799V31.6396ZM20.5399 35.9996V35.1796C20.6699 35.1496 20.7699 35.0997 20.8299 35.0097C20.8899 34.9197 20.9199 34.7997 20.9299 34.6297C20.9299 34.4497 20.9399 34.2697 20.9399 34.0997C20.9399 33.9297 20.9399 33.7197 20.9199 33.4697H21.8799C21.8799 33.6697 21.8899 33.8696 21.8999 34.0496C21.8999 34.2396 21.8999 34.4196 21.8899 34.5896C21.8699 35.0596 21.7599 35.3996 21.5499 35.6196C21.3399 35.8396 20.9999 35.9696 20.5399 35.9996Z" fill="#F90042"/>
<path d="M23.9601 35.9996C23.5001 35.9696 23.1601 35.8396 22.9501 35.6196C22.7401 35.3996 22.6301 35.0497 22.6201 34.5797C22.6201 34.0997 22.6101 33.6396 22.6001 33.2096C22.6001 32.7796 22.6001 32.3497 22.6001 31.9197C22.6001 31.4897 22.6001 31.0296 22.6201 30.5396C22.6201 30.0796 22.7401 29.7396 22.9501 29.5196C23.1601 29.2996 23.5001 29.1696 23.9601 29.1396V29.9596C23.8301 29.9896 23.7401 30.0397 23.6801 30.1297C23.6201 30.2197 23.5901 30.3397 23.5901 30.5097C23.5801 31.0097 23.5701 31.4797 23.5701 31.9197C23.5701 32.3597 23.5701 32.7896 23.5701 33.2296C23.5701 33.6696 23.5801 34.1297 23.5901 34.6297C23.5901 34.9497 23.7201 35.1296 23.9701 35.1796V35.9996H23.9601ZM24.8001 31.6396C24.8001 31.4496 24.8101 31.2597 24.8101 31.0797C24.8101 30.8997 24.8101 30.7096 24.8101 30.5196C24.8101 30.2196 24.6801 30.0396 24.4601 29.9796V29.1596C24.9001 29.1996 25.2301 29.3297 25.4401 29.5597C25.6501 29.7897 25.7601 30.1296 25.7801 30.5696C25.7801 30.7496 25.7901 30.9296 25.7801 31.1096C25.7801 31.2896 25.7801 31.4697 25.7601 31.6497H24.8001V31.6396ZM24.4601 35.9996V35.1796C24.5901 35.1496 24.6901 35.0997 24.7501 35.0097C24.8101 34.9197 24.8401 34.7997 24.8501 34.6297C24.8501 34.4497 24.8601 34.2697 24.8601 34.0997C24.8601 33.9297 24.8601 33.7197 24.8501 33.4697H25.8101C25.8101 33.6697 25.8201 33.8696 25.8201 34.0496C25.8201 34.2296 25.8201 34.4196 25.8101 34.5896C25.7901 35.0596 25.6801 35.3996 25.4701 35.6196C25.2601 35.8396 24.9201 35.9696 24.4601 35.9996Z" fill="#F90042"/>
<path d="M26.2998 35.9297L27.1298 29.1997H28.9098L29.0098 30.0497H27.8498L27.7598 31.9397L27.5898 33.4197H28.2298L28.0098 34.2797H27.4998L27.2898 35.9297H26.2998ZM28.7298 35.9297L28.2798 31.9397L28.1998 30.4397H29.0298L29.7098 35.9297H28.7298Z" fill="#F90042"/>
<path d="M30.3701 35.9297V29.1997H31.3301V35.9297H30.3701ZM31.8301 33.5497V32.6997H31.9001C32.0901 32.6997 32.2301 32.6597 32.3101 32.5897C32.4001 32.5097 32.4401 32.3997 32.4501 32.2397C32.4801 31.6997 32.4801 31.1297 32.4501 30.5297C32.4501 30.3697 32.3901 30.2597 32.3101 30.1797C32.2301 30.0997 32.0901 30.0697 31.9001 30.0697H31.8201V29.2197H31.9001C32.4201 29.2197 32.8001 29.3297 33.0401 29.5397C33.2701 29.7497 33.4001 30.0997 33.4201 30.5797C33.4201 30.8797 33.4301 31.1597 33.4401 31.4097C33.4401 31.6597 33.4401 31.9197 33.4201 32.1997C33.4001 32.6897 33.2701 33.0297 33.0401 33.2397C32.8101 33.4497 32.4301 33.5597 31.9001 33.5597H31.8301V33.5497Z" fill="#F90042"/>
<path d="M35.4301 35.9899C34.9601 35.9599 34.6201 35.8299 34.4201 35.6099C34.2101 35.3899 34.1001 35.0299 34.1001 34.5499C34.1001 34.0599 34.0901 33.5999 34.0801 33.1799C34.0701 32.7599 34.0801 32.3399 34.0801 31.9199C34.0801 31.4999 34.0801 31.0499 34.1001 30.5699C34.1001 30.0899 34.2201 29.7399 34.4201 29.5199C34.6201 29.2999 34.9601 29.1699 35.4301 29.1399V29.9599C35.1901 30.0099 35.0701 30.1999 35.0701 30.5299C35.0501 31.0199 35.0401 31.4799 35.0301 31.9099C35.0301 32.3399 35.0301 32.7699 35.0301 33.2099C35.0301 33.6499 35.0501 34.1099 35.0701 34.6099C35.0701 34.7799 35.1001 34.9099 35.1501 34.9999C35.2101 35.0899 35.3001 35.1499 35.4301 35.1799V35.9999V35.9899ZM35.9301 35.9899V35.1699C36.0601 35.1399 36.1501 35.0799 36.2001 34.9899C36.2501 34.8999 36.2801 34.7699 36.2801 34.5999C36.3001 34.1099 36.3101 33.6399 36.3101 33.2099C36.3101 32.7799 36.3101 32.3499 36.3101 31.9099C36.3101 31.4799 36.2901 31.0099 36.2801 30.5199C36.2801 30.3499 36.2501 30.2199 36.2001 30.1299C36.1501 30.0399 36.0601 29.9799 35.9301 29.9499V29.1299C36.3801 29.1599 36.7101 29.2899 36.9101 29.5199C37.1101 29.7499 37.2201 30.0899 37.2401 30.5599C37.2601 31.0499 37.2701 31.4999 37.2701 31.9199C37.2701 32.3399 37.2701 32.7599 37.2701 33.1799C37.2701 33.5999 37.2601 34.0599 37.2401 34.5499C37.2301 35.0299 37.1201 35.3799 36.9101 35.5999C36.7101 35.8199 36.3801 35.9499 35.9301 35.9899Z" fill="#F90042"/>
<path d="M38.1401 35.9299V29.1999H39.1001V35.9299H38.1401ZM39.6001 35.9299V35.0699H39.7101C39.9101 35.0699 40.0601 35.0299 40.1501 34.9399C40.2401 34.8599 40.2901 34.7199 40.2901 34.5399C40.2901 34.2499 40.2901 33.9499 40.2901 33.6599C40.2901 33.3999 40.2401 33.2199 40.1601 33.1099C40.0801 33.0099 39.9301 32.9499 39.7301 32.9499H39.6101V32.0899H39.7401C40.1001 32.0899 40.2801 31.8699 40.2901 31.4299C40.2901 31.2699 40.2901 31.1199 40.2901 30.9799C40.2901 30.8399 40.2901 30.6899 40.2901 30.5199C40.2901 30.3599 40.2401 30.2399 40.1501 30.1599C40.0601 30.0799 39.9101 30.0399 39.7101 30.0399H39.6101V29.1899H39.7101C40.2501 29.1899 40.6301 29.2999 40.8801 29.5099C41.1301 29.7199 41.2501 30.0699 41.2501 30.5699V31.0499C41.2501 31.1899 41.2501 31.3199 41.2501 31.4499C41.2401 31.7199 41.1801 31.9399 41.0701 32.0999C40.9701 32.2599 40.8001 32.3699 40.5801 32.4399V32.5999C40.8101 32.6699 40.9801 32.7899 41.0901 32.9499C41.2001 33.1099 41.2601 33.3299 41.2701 33.6099C41.2701 33.7799 41.2801 33.9399 41.2801 34.0799C41.2801 34.2199 41.2801 34.3799 41.2701 34.5499C41.2501 35.0399 41.1201 35.3999 40.8901 35.6099C40.6601 35.8199 40.2701 35.9299 39.7301 35.9299H39.6201H39.6001Z" fill="#F90042"/>
</svg>
