<svg width="23" height="21" viewBox="0 0 23 21" fill="none" xmlns="http://www.w3.org/2000/svg">
<path d="M17.75 5C19.5449 5 21 6.45507 21 8.25V9.5C21 10.6046 20.1046 11.5 19 11.5H18.25C17.6028 11.5 17.0709 11.9918 17.0068 12.6221L16.9932 12.8779C16.9291 13.5082 16.3972 14 15.75 14H15.5C14.6716 14 14 14.6716 14 15.5V16.5C14 17.8807 12.8807 19 11.5 19H5C2.79086 19 1 17.2091 1 15V9C1 6.79086 2.79086 5 5 5H17.75ZM11 9C9.34315 9 8 10.3431 8 12C8 13.6569 9.34315 15 11 15C12.6569 15 14 13.6569 14 12C14 10.3431 12.6569 9 11 9ZM12.9297 1C13.5984 1.00002 14.2228 1.33424 14.5938 1.89062L15.667 3.5H6.33301L7.40625 1.89062C7.77717 1.33424 8.40163 1.00002 9.07031 1H12.9297Z" fill="#28303F"/>
<path fill-rule="evenodd" clip-rule="evenodd" d="M18.8906 12.3107C19.3048 12.3107 19.6406 12.6464 19.6406 13.0607L19.6406 15.1391L21.7191 15.1391C22.1333 15.1391 22.4691 15.4749 22.4691 15.8891C22.4691 16.3033 22.1333 16.6391 21.7191 16.6391L19.6406 16.6391V18.7175C19.6406 19.1317 19.3048 19.4675 18.8906 19.4675C18.4764 19.4675 18.1406 19.1317 18.1406 18.7175V16.6391L16.0622 16.6391C15.648 16.6391 15.3122 16.3033 15.3122 15.8891C15.3122 15.4749 15.648 15.1391 16.0622 15.1391L18.1406 15.1391L18.1406 13.0607C18.1406 12.6464 18.4764 12.3107 18.8906 12.3107Z" fill="#28303F"/>
</svg>
